#!OML:ASF F:\VICON\USERDATA\INSTALL\rory3\rory3.ASF
:FULLY-SPECIFIED
:DEGREES
851
root 1.83072 29.0532 -0.470135 -168.174 3.9933 183.039
lowerback 19.7318 3.17348 -3.80284
upperback 3.60735 4.30585 3.44763
thorax -7.64401 2.47902 4.74961
lowerneck -13.6202 3.46583 -1.09338
upperneck 39.4568 1.52741 -1.85262
head 16.4673 -1.1519 -0.758039
rclavicle -5.32743e-014 -2.8625e-014
rhumerus 50.0154 16.9842 -60.3152
rradius 84.106
rwrist 48.939
rhand 8.21926 2.44656
rfingers 7.12502
rthumb 33.4355 -24.4607
lclavicle -5.32743e-014 -2.8625e-014
lhumerus 8.23389 -18.6596 86.0877
lradius 86.7568
lwrist -33.4413
lhand -20.3258 30.9532
lfingers 7.12502
lthumb 6.02529 60.8475
rfemur -72.287 3.63879 26.8707
rtibia 88.0932
rfoot -23.8559 3.95389
rtoes 12.4859
lfemur -24.3956 1.83117 -17.7583
ltibia 16.7378
lfoot 7.86067 -2.61406
ltoes -16.8408
852
root 1.78405 28.9938 -0.442586 -168.385 4.22377 183.136
lowerback 19.6892 3.27272 -3.90935
upperback 3.63454 4.4178 3.46207
thorax -7.61306 2.5355 4.79801
lowerneck -13.4321 3.30589 -1.03853
upperneck 39.3107 1.21092 -1.73057
head 16.3391 -1.25418 -0.764081
rclavicle 6.75868e-015 -3.10104e-014
rhumerus 50.3297 16.6568 -59.8864
rradius 83.611
rwrist 48.4583
rhand 7.88933 1.90367
rfingers 7.12502
rthumb 33.1218 -25.0708
lclavicle 6.75868e-015 -3.10104e-014
lhumerus 8.61691 -18.7194 86.196
lradius 86.9114
lwrist -33.8926
lhand -20.009 30.9871
lfingers 7.12502
lthumb 6.33114 60.8725
rfemur -72.7446 3.55042 26.8661
rtibia 88.8884
rfoot -23.4553 4.16342
rtoes 11.7987
lfemur -24.2765 2.30126 -18.0066
ltibia 16.9763
lfoot 6.67195 -2.98013
ltoes -17.0719
853
root 1.73683 28.9408 -0.416094 -168.755 4.40029 183.26
lowerback 19.8547 3.32466 -3.92579
upperback 3.68795 4.49418 3.501
thorax -7.65654 2.57817 4.82277
lowerneck -13.0281 3.43305 -0.354881
upperneck 38.9031 1.60966 -2.61411
head 16.055 -1.08896 -1.18854
rclavicle 5.56597e-015 1.19271e-014
rhumerus 50.6186 16.4706 -59.433
rradius 83.1267
rwrist 47.874
rhand 7.56513 1.11095
rfingers 7.12502
rthumb 32.8135 -25.9284
lclavicle 5.56597e-015 1.19271e-014
lhumerus 8.90331 -18.6036 86.3992
lradius 87.163
lwrist -34.5121
lhand -18.984 30.9892
lfingers 7.12502
lthumb 7.32062 60.8426
rfemur -72.9338 3.40303 26.8741
rtibia 89.5758
rfoot -23.0271 4.55027
rtoes 12.0197
lfemur -24.0054 2.58622 -18.1813
ltibia 17.1636
lfoot 5.59832 -3.01761
ltoes -16.5306
854
root 1.69228 28.8866 -0.388076 -169.221 4.53719 183.279
lowerback 20.1933 3.39161 -4.05331
upperback 3.72606 4.56032 3.5125
thorax -7.81348 2.62055 4.87613
lowerneck -13.3337 3.26569 -0.35324
upperneck 39.427 1.15861 -2.4983
head 16.3972 -1.3032 -1.24438
rclavicle 4.73108e-014 2.54444e-014
rhumerus 50.7243 16.1806 -59.2813
rradius 82.5754
rwrist 47.6502
rhand 7.34938 1.20552
rfingers 7.12502
rthumb 32.6082 -25.8765
lclavicle 4.73108e-014 2.54444e-014
lhumerus 9.27212 -18.536 86.6195
lradius 87.2605
lwrist -34.9752
lhand -17.5519 31.2258
lfingers 7.12502
lthumb 8.70278 61.0264
rfemur -73.0278 3.2046 26.7586
rtibia 90.2102
rfoot -22.6098 5.01948
rtoes 12.1349
lfemur -23.6988 2.74028 -18.4217
ltibia 17.4122
lfoot 4.67787 -2.90981
ltoes -15.0852
855
root 1.64949 28.8296 -0.360044 -169.427 4.87717 183.305
lowerback 20.2417 3.55124 -4.24597
upperback 3.72848 4.72257 3.48719
thorax -7.86841 2.70288 4.9109
lowerneck -13.3279 3.25204 -0.137977
upperneck 39.5003 1.10021 -2.64787
head 16.439 -1.3244 -1.36419
rclavicle 9.14409e-015 1.59028e-015
rhumerus 51.0013 15.4243 -59.2589
rradius 81.9023
rwrist 47.8376
rhand 7.66079 2.77321
rfingers 7.12502
rthumb 32.9044 -24.2471
lclavicle 9.14409e-015 1.59028e-015
lhumerus 9.87429 -18.6588 86.7748
lradius 87.2177
lwrist -35.236
lhand -16.6924 31.8338
lfingers 7.12502
lthumb 9.53217 61.5982
rfemur -73.4697 3.25247 26.6534
rtibia 90.8045
rfoot -22.148 5.26614
rtoes 10.756
lfemur -23.7133 3.09413 -18.6483
ltibia 17.7767
lfoot 3.77177 -2.74294
ltoes -13.6715
856
root 1.60467 28.7794 -0.334949 -169.324 5.3901 183.481
lowerback 19.8743 3.75986 -4.35891
upperback 3.71682 4.96804 3.47622
thorax -7.72352 2.81558 4.91142
lowerneck -13.3183 3.21605 0.266641
upperneck 39.3888 1.09452 -3.01134
head 16.3873 -1.30824 -1.59281
rclavicle 2.90226e-014 2.38542e-015
rhumerus 51.569 14.7662 -58.5974
rradius 81.1988
rwrist 46.6493
rhand 7.1175 1.91382
rfingers 7.12502
rthumb 32.3875 -25.2136
lclavicle 2.90226e-014 2.38542e-015
lhumerus 10.4389 -18.8672 86.8644
lradius 87.2351
lwrist -35.5839
lhand -15.7847 32.5759
lfingers 7.12502
lthumb 10.4078 62.2983
rfemur -74.1539 3.52779 26.6823
rtibia 91.3189
rfoot -21.6248 5.37946
rtoes 9.75051
lfemur -24.0259 3.60814 -18.7432
ltibia 18.1739
lfoot 2.87885 -2.563
ltoes -12.3049
857
root 1.56092 28.7387 -0.30714 -169.3 5.80123 183.553
lowerback 19.6032 3.93181 -4.53251
upperback 3.73804 5.15642 3.4535
thorax -7.59087 2.90434 4.94755
lowerneck -13.6039 2.97883 0.0831855
upperneck 39.623 0.616342 -2.73115
head 16.5674 -1.5086 -1.53386
rclavicle 4.96962e-014 3.18055e-015
rhumerus 51.9537 14.1431 -58.3182
rradius 80.6553
rwrist 46.1326
rhand 7.09873 1.86843
rfingers 7.12502
rthumb 32.3697 -25.2627
lclavicle 4.96962e-014 3.18055e-015
lhumerus 11.0389 -19.1957 86.9212
lradius 87.1288
lwrist -35.5927
lhand -15.6596 33.0111
lfingers 7.12502
lthumb 10.5285 62.7274
rfemur -74.7096 3.6453 26.6211
rtibia 91.7866
rfoot -21.085 5.49996
rtoes 9.39794
lfemur -24.2589 3.90625 -18.9042
ltibia 18.5609
lfoot 2.12462 -2.37157
ltoes -11.013
858
root 1.51927 28.7011 -0.275144 -169.432 6.05678 183.505
lowerback 19.5647 4.06007 -4.79266
upperback 3.7911 5.2723 3.42561
thorax -7.54545 2.96488 5.03699
lowerneck -13.6109 2.85405 0.136504
upperneck 39.5544 0.452401 -2.82006
head 16.5296 -1.57694 -1.60804
rclavicle -5.60573e-014 0
rhumerus 52.0589 13.6245 -58.292
rradius 80.3867
rwrist 46.1389
rhand 7.30506 2.28142
rfingers 7.12502
rthumb 32.566 -24.8094
lclavicle -5.60573e-014 0
lhumerus 11.6391 -19.5911 87.0157
lradius 86.9175
lwrist -35.1567
lhand -17.018 32.9269
lfingers 7.12502
lthumb 9.21796 62.7054
rfemur -75.1191 3.58895 26.4608
rtibia 92.2644
rfoot -20.597 5.55943
rtoes 8.71991
lfemur -24.3653 3.97458 -19.1442
ltibia 18.9732
lfoot 1.43221 -2.13088
ltoes -10.1316
859
root 1.47893 28.6649 -0.243647 -169.53 6.15629 183.586
lowerback 19.5728 4.12145 -4.87948
upperback 3.80995 5.33909 3.44428
thorax -7.54692 3.00018 5.08843
lowerneck -13.5741 2.84679 0.258854
upperneck 39.5263 0.441337 -2.91227
head 16.5068 -1.57537 -1.67129
rclavicle -1.90833e-014 -1.66979e-014
rhumerus 52.0368 13.1508 -58.3651
rradius 80.1959
rwrist 46.1367
rhand 7.47123 2.67992
rfingers 7.12502
rthumb 32.7241 -24.3781
lclavicle -1.90833e-014 -1.66979e-014
lhumerus 12.0631 -19.8191 87.2209
lradius 86.8728
lwrist -35.124
lhand -17.5456 32.76
lfingers 7.12502
lthumb 8.7089 62.5603
rfemur -75.512 3.43103 26.4465
rtibia 92.7417
rfoot -20.273 5.71516
rtoes 7.90317
lfemur -24.4936 3.99689 -19.2338
ltibia 19.3406
lfoot 0.729095 -1.73808
ltoes -10.1656
860
root 1.44065 28.6263 -0.206877 -169.642 6.10293 183.719
lowerback 19.7558 4.13247 -4.819
upperback 3.80498 5.36709 3.46502
thorax -7.65084 3.0169 5.05835
lowerneck -13.6487 2.66811 0.171964
upperneck 39.485 0.189128 -2.88198
head 16.4959 -1.68511 -1.68441
rclavicle 7.55382e-015 -2.14687e-014
rhumerus 52.0467 12.6708 -58.4174
rradius 79.9484
rwrist 45.9155
rhand 7.51524 2.95948
rfingers 7.12502
rthumb 32.766 -24.0898
lclavicle 7.55382e-015 -2.14687e-014
lhumerus 12.4547 -19.9786 87.4801
lradius 86.7887
lwrist -35.5138
lhand -17.2431 32.988
lfingers 7.12502
lthumb 9.00075 62.7759
rfemur -75.8393 3.18895 26.4569
rtibia 93.2181
rfoot -19.9882 6.03071
rtoes 7.48726
lfemur -24.617 3.81623 -19.2155
ltibia 19.6581
lfoot 0.0738425 -1.18871
ltoes -10.9641
861
root 1.39976 28.5976 -0.191208 -169.798 6.70766 183.816
lowerback 19.6686 4.37843 -5.01632
upperback 3.92118 5.65906 3.43706
thorax -7.52947 3.16048 5.06615
lowerneck -13.6624 2.68633 0.572779
upperneck 39.3434 0.323572 -3.33338
head 16.4329 -1.61932 -1.92425
rclavicle 5.96354e-015 1.15295e-014
rhumerus 52.1825 12.218 -58.3915
rradius 79.608
rwrist 45.5344
rhand 7.36856 3.06936
rfingers 7.12502
rthumb 32.6264 -24.0089
lclavicle 5.96354e-015 1.15295e-014
lhumerus 12.9219 -20.1741 87.6867
lradius 86.5728
lwrist -35.7464
lhand -17.242 33.3515
lfingers 7.12502
lthumb 9.00187 63.1394
rfemur -75.9394 3.54785 26.3231
rtibia 93.6243
rfoot -19.7013 6.51236
rtoes 7.51211
lfemur -24.5108 4.27439 -19.3063
ltibia 19.9181
lfoot -0.564558 -0.788169
ltoes -10.1333
862
root 1.36065 28.5772 -0.170907 -169.875 7.0678 183.944
lowerback 19.5828 4.53947 -5.09322
upperback 3.96712 5.85884 3.4219
thorax -7.46538 3.25687 5.04352
lowerneck -13.8079 2.53052 0.414637
upperneck 39.5588 -0.0402199 -3.06295
head 16.5719 -1.76913 -1.85428
rclavicle 5.14852e-014 -2.14687e-014
rhumerus 52.1965 11.8009 -58.4479
rradius 79.2809
rwrist 45.3784
rhand 7.18546 3.35813
rfingers 7.12502
rthumb 32.4522 -23.7561
lclavicle 5.14852e-014 -2.14687e-014
lhumerus 13.2453 -20.3101 87.9304
lradius 86.3709
lwrist -35.9934
lhand -17.1895 33.3767
lfingers 7.12502
lthumb 9.05251 63.1624
rfemur -76.1311 3.65709 26.2809
rtibia 93.9474
rfoot -19.4308 6.8883
rtoes 6.56812
lfemur -24.4752 4.50601 -19.3149
ltibia 20.0109
lfoot -0.963719 -0.655131
ltoes -9.86311
863
root 1.32371 28.5651 -0.143246 -169.902 7.29634 184.026
lowerback 19.4909 4.65165 -5.15673
upperback 3.99105 5.99406 3.39825
thorax -7.4116 3.32125 5.02226
lowerneck -13.5736 2.46595 0.490245
upperneck 39.3452 -0.0785377 -3.19781
head 16.3981 -1.78409 -1.91867
rclavicle -2.66371e-014 -1.19271e-014
rhumerus 52.1174 11.416 -58.5752
rradius 79.0229
rwrist 45.4639
rhand 6.82863 3.68599
rfingers 7.12502
rthumb 32.1126 -23.4973
lclavicle -2.66371e-014 -1.19271e-014
lhumerus 13.6036 -20.4264 88.1961
lradius 86.0557
lwrist -36.2627
lhand -17.1033 33.3511
lfingers 7.12502
lthumb 9.13566 63.1332
rfemur -76.3872 3.63407 26.1986
rtibia 94.2024
rfoot -19.1035 7.40795
rtoes 5.72462
lfemur -24.4094 4.68285 -19.356
ltibia 19.8482
lfoot -1.21975 -0.681165
ltoes -10.0012
864
root 1.28442 28.5478 -0.114964 -169.845 7.48274 183.937
lowerback 19.3433 4.73002 -5.31518
upperback 4.00255 6.05888 3.33015
thorax -7.3364 3.35072 5.02995
lowerneck -13.5343 2.30146 0.416831
upperneck 39.3068 -0.318033 -3.20782
head 16.3603 -1.89648 -1.94881
rclavicle 5.60573e-014 -1.03368e-014
rhumerus 52.1435 11.0369 -58.6787
rradius 78.7282
rwrist 45.4554
rhand 6.52596 4.14478
rfingers 7.12502
rthumb 31.8244 -23.0962
lclavicle 5.60573e-014 -1.03368e-014
lhumerus 14.0106 -20.5081 88.4667
lradius 85.7166
lwrist -36.5357
lhand -16.8604 33.3588
lfingers 7.12502
lthumb 9.37003 63.1305
rfemur -76.8571 3.48236 25.9029
rtibia 94.4938
rfoot -18.5282 8.12635
rtoes 5.77795
lfemur -24.3594 4.87966 -19.6318
ltibia 19.5177
lfoot -1.25983 -1.06342
ltoes -9.83689
865
root 1.24554 28.5215 -0.0925246 -169.702 7.64269 183.828
lowerback 19.1523 4.78919 -5.46903
upperback 3.96669 6.09382 3.25671
thorax -7.28513 3.36404 5.03905
lowerneck -13.6109 2.18774 0.208051
upperneck 39.4261 -0.546025 -3.02029
head 16.4362 -2.00468 -1.87676
rclavicle 5.92378e-014 2.38542e-015
rhumerus 52.1781 10.7034 -58.7218
rradius 78.4841
rwrist 45.2437
rhand 6.42789 4.48313
rfingers 7.12502
rthumb 31.731 -22.7764
lclavicle 5.92378e-014 2.38542e-015
lhumerus 14.3326 -20.5061 88.7595
lradius 85.4287
lwrist -36.9055
lhand -16.3769 33.3771
lfingers 7.12502
lthumb 9.83652 63.1273
rfemur -77.507 3.28889 25.6053
rtibia 94.8045
rfoot -17.808 8.69949
rtoes 5.8928
lfemur -24.35 5.01748 -19.9352
ltibia 19.1075
lfoot -1.09402 -1.56507
ltoes -9.29558
